# xmcd
#
# Track frame offsets: 
#        150
#        11637
#        26245
#        37750
#        49805
#        62460
#        74420
#        86437
#        98022
#        108600
#        118210
#        128980
#        137900
#        150907
#        165282
#        178142
#        192727
#        206672
#        217522
#        229282
#        243442
#
# Disc length: 3414 seconds
#
# Revision: 3
# Processed by: cddbd v1.5.2PL0 Copyright (c) Steve Scherf et al.
# Submitted via: ExactAudioCopy v0.99pb4
#
DISCID=220d5415
DTITLE=Various Artist - Sweet Dreams of Country [Disc 4]
DYEAR=1990
DGENRE=Country
TTITLE0=Elvis Presley - You Don't Have to Say You Love Me
TTITLE1=Dolly Parton - Harper Valley P.T.A.
TTITLE2=Glen Campbell - Dream Baby (How Long Must I Dream)
TTITLE3=Brenda Lee - Break it to Me Gently
TTITLE4=Sonny James - Since I Met You Baby
TTITLE5=Sonny James - Only The Lonely
TTITLE6=Elvis Presley - I Want You, I Need You, I Love You
TTITLE7=Dottie West - Here Comes My Baby
TTITLE8=Hank Williams Jr - Ain't That a Shame?
TTITLE9=Johnnie and Jonie Mosby - Hold Me, Thrill Me, Kiss Me
TTITLE10=Eddy Arnold - Hey, Good Lookin'
TTITLE11=Patsy Cline - Any Time
TTITLE12=Jim Reeves - Distant Drums
TTITLE13=Patti Page - With My Eyes Wide Open, I'm Dreaming
TTITLE14=Tennessee Ernie Ford - My Old Kentucky Home (Turpentine and D
TTITLE14=andelion Wine)
TTITLE15=Willie Nelson - Sweet Memories
TTITLE16=Dolly Parton - Coat of Many Colors
TTITLE17=Don Gibson - Lonesome Number One
TTITLE18=Patti Page - Mom and Dad's Waltz
TTITLE19=Elvis Presley - Are You Lonesome Tonight?
TTITLE20=Eddy Arnold - Then You Can Tell Me Goodbye
EXTD=
EXTT0=
EXTT1=
EXTT2=
EXTT3=
EXTT4=
EXTT5=
EXTT6=
EXTT7=
EXTT8=
EXTT9=
EXTT10=
EXTT11=
EXTT12=
EXTT13=
EXTT14=
EXTT15=
EXTT16=
EXTT17=
EXTT18=
EXTT19=
EXTT20=
PLAYORDER=
